<svg width="13" height="12" viewBox="0 0 13 12" fill="none" xmlns="http://www.w3.org/2000/svg">
<path d="M2.83437 3.88916L3.75781 6.02289L2.83437 8.10972H0.5V3.88916H2.83437Z" fill="#465A61"/>
<path d="M8.63281 9.86905V9.16562C10.3775 9.16562 11.7969 7.74561 11.7969 6.0002C11.7969 4.25478 10.3775 2.83477 8.63281 2.83477V2.13135C10.7652 2.13135 12.5 3.86691 12.5 6.0002C12.5 8.13348 10.7652 9.86905 8.63281 9.86905Z" fill="#4F934E"/>
<path d="M8.63281 8.46159V7.75816C9.60207 7.75816 10.3906 6.96927 10.3906 5.99959C10.3906 5.02992 9.60207 4.24102 8.63281 4.24102V3.5376C9.98977 3.5376 11.0938 4.64205 11.0938 5.99959C11.0938 7.35714 9.98977 8.46159 8.63281 8.46159Z" fill="#4F934E"/>
<path d="M8.63281 7.05371V6.35059C8.82666 6.35059 8.98438 6.19288 8.98438 5.99902C8.98438 5.80517 8.82666 5.64746 8.63281 5.64746V4.94434C9.21437 4.94434 9.6875 5.41747 9.6875 5.99902C9.6875 6.58058 9.21437 7.05371 8.63281 7.05371Z" fill="#4F934E"/>
<path d="M8.63281 6.35156V7.05469C9.21437 7.05469 9.6875 6.58155 9.6875 6H8.98438C8.98438 6.19385 8.82666 6.35156 8.63281 6.35156Z" fill="#80B37F"/>
<path d="M8.63281 7.75857V8.462C9.98977 8.462 11.0938 7.35754 11.0938 6H10.3906C10.3906 6.96967 9.60207 7.75857 8.63281 7.75857Z" fill="#80B37F"/>
<path d="M8.63281 9.16542V9.86885C10.7652 9.86885 12.5 8.13328 12.5 6H11.7969C11.7969 7.74541 10.3775 9.16542 8.63281 9.16542Z" fill="#80B37F"/>
<path d="M0.5 6H2.83437V8.10938H0.5V6Z" fill="#3B4A51"/>
<path d="M7.53123 0V12L2.83435 8.11028V3.88972L7.53123 0Z" fill="#697C86"/>
<path d="M7.53123 6H2.83435V8.11028L7.53123 12V6Z" fill="#465A61"/>
</svg>
