<svg width="1422" height="530" viewBox="0 0 1422 530" fill="none" xmlns="http://www.w3.org/2000/svg">
<g filter="url(#filter0_d_18061_25339)">
<path d="M438.793 483.738L384.452 491.148L361.398 338.828C282.356 331.583 263.968 292.171 251.892 268.02L195.081 273.783L207.431 373.409L74.0479 391.523L23 58.0646L264.243 22.6604L271.653 77.8251C288.669 58.3391 336.862 19.367 393.509 19.367C464.317 19.367 514.542 63.0047 521.129 70.4149V10.3101H668.509C695.131 7.84005 756.937 19.0377 791.189 83.5886C799.093 58.5587 810.4 24.3071 815.066 10.3101L939.392 17.7203L944.332 31.7174L950.919 17.7203L1076.07 25.1305L1109.83 206.268L1225.1 43.2443L1288.49 51.4778L1398 352.825L1254.74 395.64L1239.92 336.358L1197.93 328.125L1168.28 384.936L1077.72 328.125L1012.67 368.469C1032.43 371.104 1053.29 383.289 1061.25 389.053L1039.02 426.927C1040.12 428.025 1042.64 432.526 1043.96 441.747C1047.25 462.331 1036.55 482.092 1016.79 491.972C1000.98 499.876 971.229 490.325 958.329 484.562V486.208L909.752 480.445C904.537 481.268 890.32 481.433 875.171 468.918C864.467 459.038 862.925 454.573 858.162 448.222L847.177 472.211L792.835 467.271L791.476 449.809L783.779 471.388L722.85 468.918L716.851 452.985L715.44 466.448C701.992 466.722 671.308 467.271 656.159 467.271C641.009 467.271 630.635 459.038 627.341 454.921L628.165 467.271L536.772 472.211C536.224 472.486 530.844 472.87 513.719 472.211C492.311 468.918 482.431 448.334 478.314 433.514C465.799 448.005 444.557 451.628 435.5 451.628L438.793 483.738Z" fill="#FBF5EE" stroke="#98C3FF" stroke-width="6.35104"/>
<g filter="url(#filter1_d_18061_25339)">
<path d="M992.718 411.694C992.973 414.355 995.075 416.361 998.047 417.89C999.143 418.47 1000.58 419.093 1002.35 419.761C1004.07 420.416 1005.68 421.051 1007.16 421.664L1007.22 421.685L1007.27 421.703C1008.74 422.187 1010.44 422.832 1012.38 423.641L1012.38 423.644L1012.39 423.648C1014.42 424.468 1016.12 425.286 1017.5 426.098L1017.52 426.108L1017.53 426.116C1019.01 426.941 1020.53 428.01 1022.09 429.337L1022.13 429.374L1022.18 429.408C1023.82 430.6 1025.05 431.87 1025.91 433.206L1025.95 433.266L1025.99 433.322C1027.02 434.627 1027.97 436.227 1028.83 438.137L1028.85 438.167L1028.86 438.197C1029.77 439.996 1030.22 441.938 1030.2 444.046L1030.2 444.084L1030.2 444.122C1030.3 446.403 1030.22 449.036 1029.96 452.028C1029.72 454.882 1028.92 457.979 1027.53 461.326L1027.51 461.373L1027.49 461.421C1025.63 466.895 1022.7 471.111 1018.73 474.146L1018.72 474.154L1018.71 474.162C1014.8 477.26 1010.46 479.16 1005.67 479.881C1000.91 480.518 995.71 480.435 990.05 479.613C984.486 478.807 979.32 477.521 974.549 475.761L974.533 475.756L974.517 475.75C970.184 474.265 966.147 472.536 962.401 470.566L973.636 447.8C982.626 452.621 989.814 455.661 995.145 456.824C997.939 457.433 1000.37 457.562 1002.34 457.047C1004.38 456.51 1005.9 455.273 1006.67 453.345L1006.68 453.316L1006.69 453.286C1007.11 452.096 1007.25 450.899 1007.03 449.73C1006.8 448.556 1006.23 447.513 1005.39 446.606C1003.83 444.931 1001.6 443.567 998.823 442.459C996.319 441.434 993.423 440.16 990.133 438.634C987.008 437.021 983.961 435.301 980.993 433.475C978.32 431.649 975.895 429.105 973.734 425.801C971.753 422.61 970.638 418.851 970.429 414.479L970.427 414.455L970.425 414.431C969.741 405.875 972.429 398.445 978.56 392.047C984.662 385.678 992.654 382.4 1002.68 382.282C1013.81 382.284 1026.6 386.37 1041.09 394.717L1028.33 415.953C1021.1 411.341 1013.09 407.775 1004.31 405.251L1004.3 405.247L1004.28 405.243C1001.5 404.503 998.866 404.686 996.474 405.894C995.303 406.485 994.33 407.25 993.661 408.233C992.98 409.234 992.672 410.376 992.712 411.6L992.714 411.647L992.718 411.694Z" fill="#DC231E"/>
<path d="M992.718 411.694C992.973 414.355 995.075 416.361 998.047 417.89C999.143 418.47 1000.58 419.093 1002.35 419.761C1004.07 420.416 1005.68 421.051 1007.16 421.664L1007.22 421.685L1007.27 421.703C1008.74 422.187 1010.44 422.832 1012.38 423.641L1012.38 423.644L1012.39 423.648C1014.42 424.468 1016.12 425.286 1017.5 426.098L1017.52 426.108L1017.53 426.116C1019.01 426.941 1020.53 428.01 1022.09 429.337L1022.13 429.374L1022.18 429.408C1023.82 430.6 1025.05 431.87 1025.91 433.206L1025.95 433.266L1025.99 433.322C1027.02 434.627 1027.97 436.227 1028.83 438.137L1028.85 438.167L1028.86 438.197C1029.77 439.996 1030.22 441.938 1030.2 444.046L1030.2 444.084L1030.2 444.122C1030.3 446.403 1030.22 449.036 1029.96 452.028C1029.72 454.882 1028.92 457.979 1027.53 461.326L1027.51 461.373L1027.49 461.421C1025.63 466.895 1022.7 471.111 1018.73 474.146L1018.72 474.154L1018.71 474.162C1014.8 477.26 1010.46 479.16 1005.67 479.881C1000.91 480.518 995.71 480.435 990.05 479.613C984.486 478.807 979.32 477.521 974.549 475.761L974.533 475.756L974.517 475.75C970.184 474.265 966.147 472.536 962.401 470.566L973.636 447.8C982.626 452.621 989.814 455.661 995.145 456.824C997.939 457.433 1000.37 457.562 1002.34 457.047C1004.38 456.51 1005.9 455.273 1006.67 453.345L1006.68 453.316L1006.69 453.286C1007.11 452.096 1007.25 450.899 1007.03 449.73C1006.8 448.556 1006.23 447.513 1005.39 446.606C1003.83 444.931 1001.6 443.567 998.823 442.459C996.319 441.434 993.423 440.16 990.133 438.634C987.008 437.021 983.961 435.301 980.993 433.475C978.32 431.649 975.895 429.105 973.734 425.801C971.753 422.61 970.638 418.851 970.429 414.479L970.427 414.455L970.425 414.431C969.741 405.875 972.429 398.445 978.56 392.047C984.662 385.678 992.654 382.4 1002.68 382.282C1013.81 382.284 1026.6 386.37 1041.09 394.717L1028.33 415.953C1021.1 411.341 1013.09 407.775 1004.31 405.251L1004.3 405.247L1004.28 405.243C1001.5 404.503 998.866 404.686 996.474 405.894C995.303 406.485 994.33 407.25 993.661 408.233C992.98 409.234 992.672 410.376 992.712 411.6L992.714 411.647L992.718 411.694Z" fill="url(#paint0_linear_18061_25339)" fill-opacity="0.2"/>
<path d="M991.225 411.837L991.225 411.837C991.555 415.281 994.251 417.622 997.353 419.22C998.526 419.839 1000.03 420.486 1001.81 421.164C1003.53 421.814 1005.12 422.443 1006.59 423.05L1006.64 423.072L1006.69 423.093L1006.75 423.11L1006.8 423.128L1006.8 423.128C1008.22 423.597 1009.89 424.226 1011.8 425.025L1011.8 425.027L1011.81 425.032L1011.82 425.036L1011.83 425.039C1011.83 425.039 1011.83 425.039 1011.83 425.039C1013.81 425.84 1015.44 426.626 1016.74 427.391L1016.74 427.391L1016.76 427.4L1016.77 427.409L1016.79 427.418L1016.8 427.427L1016.8 427.427C1018.18 428.195 1019.62 429.205 1021.12 430.478C1021.12 430.478 1021.12 430.478 1021.12 430.478L1021.16 430.515L1021.2 430.553L1021.25 430.587L1021.3 430.621C1021.3 430.621 1021.3 430.621 1021.3 430.621C1022.82 431.726 1023.91 432.867 1024.65 434.019L1024.69 434.079L1024.73 434.139L1024.77 434.195L1024.81 434.251C1025.75 435.442 1026.64 436.931 1027.46 438.752L1027.46 438.753L1027.48 438.784L1027.49 438.813L1027.51 438.842L1027.52 438.872L1027.52 438.874C1028.32 440.451 1028.71 442.156 1028.7 444.033L1028.7 444.034L1028.7 444.072L1028.7 444.109L1028.7 444.147L1028.7 444.185L1028.7 444.186C1028.79 446.387 1028.72 448.954 1028.47 451.9C1028.24 454.57 1027.49 457.514 1026.14 460.75L1026.14 460.75L1026.12 460.797L1026.1 460.844L1026.09 460.891L1026.07 460.939C1026.07 460.939 1026.07 460.939 1026.07 460.939C1024.3 466.17 1021.53 470.123 1017.82 472.954C1017.82 472.954 1017.82 472.954 1017.82 472.954L1017.81 472.962L1017.8 472.97L1017.79 472.978L1017.78 472.986C1017.78 472.986 1017.78 472.986 1017.78 472.986C1014.07 475.924 1009.97 477.714 1005.46 478.396C1000.86 479.01 995.807 478.933 990.266 478.128L990.265 478.128C984.795 477.336 979.732 476.074 975.068 474.354L975.068 474.354L975.052 474.348L975.036 474.342L975.02 474.337L975.004 474.331L975.003 474.331C971.237 473.04 967.703 471.564 964.399 469.907L974.297 449.85C982.693 454.274 989.568 457.142 994.825 458.289C997.721 458.921 1000.42 459.1 1002.72 458.498C1005.18 457.853 1007.09 456.316 1008.06 453.904L1008.06 453.902L1008.08 453.873L1008.09 453.845L1008.1 453.817L1008.11 453.788L1008.11 453.786C1008.6 452.395 1008.79 450.925 1008.5 449.447C1008.22 447.959 1007.49 446.667 1006.48 445.583C1004.72 443.693 1002.28 442.225 999.385 441.069C996.917 440.058 994.054 438.798 990.793 437.286C987.721 435.701 984.727 434.011 981.81 432.216C979.342 430.524 977.062 428.145 975 424.994C973.176 422.052 972.125 418.553 971.927 414.408L971.927 414.407L971.926 414.383L971.925 414.36L971.923 414.337L971.921 414.313L971.921 414.312C971.271 406.195 973.799 399.183 979.643 393.085C985.431 387.044 993.018 383.898 1002.68 383.782C1013.12 383.786 1025.21 387.505 1039.01 395.261L1027.83 413.871C1020.82 409.571 1013.11 406.22 1004.73 403.81L1004.73 403.809L1004.71 403.805L1004.7 403.801L1004.68 403.798L1004.67 403.794L1004.67 403.794C1001.58 402.972 998.563 403.159 995.798 404.555C994.467 405.227 993.27 406.142 992.421 407.389L993.661 408.233L992.421 407.389C991.548 408.671 991.164 410.13 991.213 411.648C991.213 411.648 991.213 411.648 991.213 411.648L991.214 411.695L991.216 411.743L991.22 411.79L991.225 411.837Z" stroke="#DC231E" stroke-width="3"/>
</g>
<g filter="url(#filter2_d_18061_25339)">
<mask id="path-4-inside-1_18061_25339" fill="white">
<path fill-rule="evenodd" clip-rule="evenodd" d="M947.269 457.653L945.565 470.288L919.551 467.117L919.943 463.903L917.696 464.647C913.316 466.098 908.767 466.538 904.031 465.961C895.372 464.905 888.395 460.968 883.022 454.103C877.649 447.239 875.502 439.521 876.558 430.861C877.247 425.202 879.269 420.133 882.626 415.628C885.981 411.126 890.235 407.795 895.412 405.62C900.591 403.443 905.997 402.699 911.657 403.388C916.493 403.978 920.961 405.63 925.077 408.356L927.101 409.696L927.394 407.287C928.054 401.876 926.813 397.414 923.417 394.194C920.183 391.128 916.181 389.45 911.493 389.137C907.144 388.735 902.91 388.848 898.793 389.482C896.127 389.893 893.837 390.452 891.973 391.189L893.453 375.318C897.029 372.86 901.379 371.196 906.546 370.363L906.561 370.36L906.576 370.358C912.009 369.367 917.483 369.501 923.011 370.767C928.583 372.043 933.753 374.103 938.526 376.947L938.544 376.958L938.562 376.968C943.355 379.647 947.138 383.478 949.921 388.5L949.925 388.507L949.93 388.515C952.698 393.372 953.9 398.863 953.5 405.041L953.499 405.052L953.499 405.063C953.331 408.409 952.569 415.671 951.2 426.911C949.847 438.012 948.537 448.259 947.269 457.653ZM922.179 445.503L922.599 445.126L922.667 444.567C923.357 438.904 924.056 433.672 924.763 428.872L924.846 428.311L924.536 427.835C922.133 424.145 918.728 421.994 914.415 421.468C910.531 420.995 907.026 421.944 903.995 424.316C900.977 426.679 899.21 429.787 898.75 433.566C898.289 437.346 899.257 440.787 901.62 443.805C903.992 446.836 907.166 448.599 911.051 449.073C915.236 449.583 918.979 448.37 922.179 445.503Z"/>
</mask>
<path fill-rule="evenodd" clip-rule="evenodd" d="M947.269 457.653L945.565 470.288L919.551 467.117L919.943 463.903L917.696 464.647C913.316 466.098 908.767 466.538 904.031 465.961C895.372 464.905 888.395 460.968 883.022 454.103C877.649 447.239 875.502 439.521 876.558 430.861C877.247 425.202 879.269 420.133 882.626 415.628C885.981 411.126 890.235 407.795 895.412 405.62C900.591 403.443 905.997 402.699 911.657 403.388C916.493 403.978 920.961 405.63 925.077 408.356L927.101 409.696L927.394 407.287C928.054 401.876 926.813 397.414 923.417 394.194C920.183 391.128 916.181 389.45 911.493 389.137C907.144 388.735 902.91 388.848 898.793 389.482C896.127 389.893 893.837 390.452 891.973 391.189L893.453 375.318C897.029 372.86 901.379 371.196 906.546 370.363L906.561 370.36L906.576 370.358C912.009 369.367 917.483 369.501 923.011 370.767C928.583 372.043 933.753 374.103 938.526 376.947L938.544 376.958L938.562 376.968C943.355 379.647 947.138 383.478 949.921 388.5L949.925 388.507L949.93 388.515C952.698 393.372 953.9 398.863 953.5 405.041L953.499 405.052L953.499 405.063C953.331 408.409 952.569 415.671 951.2 426.911C949.847 438.012 948.537 448.259 947.269 457.653ZM922.179 445.503L922.599 445.126L922.667 444.567C923.357 438.904 924.056 433.672 924.763 428.872L924.846 428.311L924.536 427.835C922.133 424.145 918.728 421.994 914.415 421.468C910.531 420.995 907.026 421.944 903.995 424.316C900.977 426.679 899.21 429.787 898.75 433.566C898.289 437.346 899.257 440.787 901.62 443.805C903.992 446.836 907.166 448.599 911.051 449.073C915.236 449.583 918.979 448.37 922.179 445.503Z" fill="#FFCC33"/>
<path fill-rule="evenodd" clip-rule="evenodd" d="M947.269 457.653L945.565 470.288L919.551 467.117L919.943 463.903L917.696 464.647C913.316 466.098 908.767 466.538 904.031 465.961C895.372 464.905 888.395 460.968 883.022 454.103C877.649 447.239 875.502 439.521 876.558 430.861C877.247 425.202 879.269 420.133 882.626 415.628C885.981 411.126 890.235 407.795 895.412 405.62C900.591 403.443 905.997 402.699 911.657 403.388C916.493 403.978 920.961 405.63 925.077 408.356L927.101 409.696L927.394 407.287C928.054 401.876 926.813 397.414 923.417 394.194C920.183 391.128 916.181 389.45 911.493 389.137C907.144 388.735 902.91 388.848 898.793 389.482C896.127 389.893 893.837 390.452 891.973 391.189L893.453 375.318C897.029 372.86 901.379 371.196 906.546 370.363L906.561 370.36L906.576 370.358C912.009 369.367 917.483 369.501 923.011 370.767C928.583 372.043 933.753 374.103 938.526 376.947L938.544 376.958L938.562 376.968C943.355 379.647 947.138 383.478 949.921 388.5L949.925 388.507L949.93 388.515C952.698 393.372 953.9 398.863 953.5 405.041L953.499 405.052L953.499 405.063C953.331 408.409 952.569 415.671 951.2 426.911C949.847 438.012 948.537 448.259 947.269 457.653ZM922.179 445.503L922.599 445.126L922.667 444.567C923.357 438.904 924.056 433.672 924.763 428.872L924.846 428.311L924.536 427.835C922.133 424.145 918.728 421.994 914.415 421.468C910.531 420.995 907.026 421.944 903.995 424.316C900.977 426.679 899.21 429.787 898.75 433.566C898.289 437.346 899.257 440.787 901.62 443.805C903.992 446.836 907.166 448.599 911.051 449.073C915.236 449.583 918.979 448.37 922.179 445.503Z" fill="url(#paint1_linear_18061_25339)" fill-opacity="0.2"/>
<path d="M922.599 445.126L924.601 447.361L925.44 446.608L925.577 445.489L922.599 445.126ZM922.179 445.503L924.181 447.737L924.181 447.737L922.179 445.503ZM922.667 444.567L919.689 444.204L919.689 444.204L922.667 444.567ZM924.763 428.872L927.731 429.31L927.731 429.309L924.763 428.872ZM924.846 428.311L927.814 428.748L927.979 427.625L927.36 426.673L924.846 428.311ZM924.536 427.835L927.05 426.198L927.05 426.198L924.536 427.835ZM914.415 421.468L914.052 424.446L914.052 424.446L914.415 421.468ZM903.995 424.316L902.146 421.954L902.146 421.954L903.995 424.316ZM898.75 433.566L901.728 433.929L901.728 433.929L898.75 433.566ZM901.62 443.805L899.257 445.654L899.257 445.654L901.62 443.805ZM911.051 449.073L911.414 446.095L911.414 446.095L911.051 449.073ZM945.565 470.288L945.202 473.266L948.142 473.624L948.538 470.689L945.565 470.288ZM947.269 457.653L950.242 458.054L950.242 458.054L947.269 457.653ZM919.551 467.117L916.573 466.755L916.21 469.732L919.188 470.095L919.551 467.117ZM919.943 463.903L922.921 464.265L923.493 459.566L918.999 461.055L919.943 463.903ZM917.696 464.647L916.752 461.799L916.752 461.799L917.696 464.647ZM904.031 465.961L903.668 468.939L903.668 468.939L904.031 465.961ZM883.022 454.103L885.385 452.254L885.385 452.254L883.022 454.103ZM876.558 430.861L879.536 431.224L879.536 431.224L876.558 430.861ZM882.626 415.628L885.031 417.42L885.031 417.42L882.626 415.628ZM895.412 405.62L894.249 402.854L894.249 402.854L895.412 405.62ZM911.657 403.388L912.02 400.41L912.02 400.41L911.657 403.388ZM925.077 408.356L926.734 405.855L926.734 405.855L925.077 408.356ZM927.101 409.696L925.444 412.197L929.492 414.878L930.079 410.059L927.101 409.696ZM927.394 407.287L924.416 406.924L924.416 406.924L927.394 407.287ZM923.417 394.194L925.481 392.017L925.481 392.017L923.417 394.194ZM911.493 389.137L911.216 392.125L911.255 392.128L911.293 392.131L911.493 389.137ZM898.793 389.482L898.336 386.517L898.336 386.517L898.793 389.482ZM891.973 391.189L888.986 390.911L888.533 395.777L893.077 393.979L891.973 391.189ZM893.453 375.318L891.754 372.846L890.597 373.642L890.466 375.04L893.453 375.318ZM906.546 370.363L906.069 367.401L906.068 367.401L906.546 370.363ZM906.561 370.36L907.038 373.322L907.069 373.317L907.1 373.311L906.561 370.36ZM906.576 370.358L906.038 367.406L906.037 367.406L906.576 370.358ZM923.011 370.767L922.341 373.691L922.341 373.691L923.011 370.767ZM938.526 376.947L936.991 379.525L936.991 379.525L938.526 376.947ZM938.544 376.958L937.009 379.535L937.043 379.556L937.078 379.576L938.544 376.958ZM938.562 376.968L937.097 379.586L937.099 379.587L938.562 376.968ZM949.921 388.5L947.297 389.954L947.297 389.955L949.921 388.5ZM949.925 388.507L947.302 389.963L947.308 389.974L947.315 389.986L949.925 388.507ZM949.93 388.515L947.319 389.993L947.323 390.001L949.93 388.515ZM953.5 405.041L950.506 404.847L950.505 404.859L953.5 405.041ZM953.499 405.052L950.505 404.87L950.504 404.887L950.503 404.903L953.499 405.052ZM953.499 405.063L956.495 405.213L956.495 405.212L953.499 405.063ZM951.2 426.911L954.178 427.274L954.178 427.274L951.2 426.911ZM920.597 442.892L920.177 443.269L924.181 447.737L924.601 447.361L920.597 442.892ZM919.689 444.204L919.621 444.764L925.577 445.489L925.645 444.93L919.689 444.204ZM921.795 428.435C921.084 433.263 920.382 438.52 919.689 444.204L925.645 444.93C926.333 439.287 927.028 434.081 927.731 429.31L921.795 428.435ZM921.878 427.874L921.795 428.435L927.731 429.309L927.814 428.748L921.878 427.874ZM922.022 429.472L922.332 429.948L927.36 426.673L927.05 426.198L922.022 429.472ZM914.052 424.446C917.465 424.862 920.091 426.508 922.022 429.472L927.05 426.198C924.174 421.783 919.992 419.126 914.778 418.49L914.052 424.446ZM905.844 426.678C908.231 424.811 910.935 424.066 914.052 424.446L914.778 418.49C910.126 417.923 905.821 419.077 902.146 421.954L905.844 426.678ZM901.728 433.929C902.091 430.948 903.445 428.556 905.844 426.678L902.146 421.954C898.508 424.801 896.33 428.625 895.772 433.203L901.728 433.929ZM903.982 441.956C902.104 439.557 901.364 436.91 901.728 433.929L895.772 433.203C895.214 437.782 896.41 442.017 899.257 445.654L903.982 441.956ZM911.414 446.095C908.297 445.715 905.85 444.343 903.982 441.956L899.257 445.654C902.134 449.329 906.036 451.484 910.688 452.051L911.414 446.095ZM920.177 443.268C917.6 445.578 914.713 446.497 911.414 446.095L910.688 452.051C915.76 452.669 920.359 451.162 924.181 447.737L920.177 443.268ZM948.538 470.689L950.242 458.054L944.296 457.252L942.592 469.887L948.538 470.689ZM919.188 470.095L945.202 473.266L945.928 467.31L919.914 464.139L919.188 470.095ZM918.639 467.495L920.886 466.75L918.999 461.055L916.752 461.799L918.639 467.495ZM903.668 468.939C908.83 469.568 913.827 469.089 918.639 467.495L916.752 461.799C912.806 463.106 908.704 463.508 904.394 462.983L903.668 468.939ZM880.66 455.952C886.523 463.444 894.219 467.787 903.668 468.939L904.394 462.983C896.524 462.024 890.267 458.492 885.385 452.254L880.66 455.952ZM873.58 430.499C872.428 439.947 874.796 448.461 880.66 455.952L885.385 452.254C880.502 446.017 878.576 439.094 879.536 431.224L873.58 430.499ZM880.22 413.835C876.547 418.764 874.332 424.328 873.58 430.499L879.536 431.224C880.163 426.076 881.99 421.501 885.031 417.42L880.22 413.835ZM894.249 402.854C888.579 405.237 883.895 408.903 880.22 413.835L885.031 417.42C888.066 413.348 891.892 410.353 896.574 408.385L894.249 402.854ZM912.02 400.41C905.849 399.658 899.917 400.472 894.249 402.854L896.574 408.385C901.266 406.414 906.146 405.739 911.294 406.366L912.02 400.41ZM926.734 405.855C922.234 402.875 917.324 401.057 912.02 400.41L911.294 406.366C915.663 406.899 919.689 408.386 923.421 410.857L926.734 405.855ZM928.757 407.195L926.734 405.855L923.421 410.857L925.444 412.197L928.757 407.195ZM924.416 406.924L924.123 409.333L930.079 410.059L930.372 407.65L924.416 406.924ZM921.353 396.371C923.886 398.773 924.993 402.192 924.416 406.924L930.372 407.65C931.115 401.56 929.739 396.055 925.481 392.017L921.353 396.371ZM911.293 392.131C915.339 392.401 918.665 393.822 921.353 396.371L925.481 392.017C921.701 388.433 917.024 386.5 911.693 386.144L911.293 392.131ZM899.249 392.447C903.111 391.852 907.099 391.743 911.216 392.125L911.77 386.15C907.189 385.726 902.708 385.844 898.336 386.517L899.249 392.447ZM893.077 393.979C894.661 393.352 896.714 392.838 899.249 392.447L898.336 386.517C895.54 386.948 893.014 387.551 890.87 388.4L893.077 393.979ZM890.466 375.04L888.986 390.911L894.96 391.468L896.441 375.597L890.466 375.04ZM906.068 367.401C900.54 368.293 895.755 370.095 891.754 372.846L895.153 377.79C898.303 375.625 902.218 374.1 907.023 373.324L906.068 367.401ZM906.084 367.398L906.069 367.401L907.023 373.325L907.038 373.322L906.084 367.398ZM906.037 367.406L906.022 367.409L907.1 373.311L907.115 373.309L906.037 367.406ZM923.68 367.842C917.766 366.488 911.881 366.341 906.038 367.406L907.114 373.309C912.137 372.393 917.201 372.514 922.341 373.691L923.68 367.842ZM940.062 374.37C935.012 371.362 929.55 369.186 923.68 367.842L922.341 373.691C927.617 374.899 932.493 376.845 936.991 379.525L940.062 374.37ZM940.08 374.381L940.062 374.37L936.991 379.525L937.009 379.535L940.08 374.381ZM940.028 374.351L940.01 374.341L937.078 379.576L937.097 379.586L940.028 374.351ZM952.545 387.045C949.503 381.556 945.326 377.312 940.026 374.349L937.099 379.587C941.384 381.982 944.774 385.401 947.297 389.954L952.545 387.045ZM952.549 387.052L952.544 387.044L947.297 389.955L947.302 389.963L952.549 387.052ZM952.54 387.037L952.536 387.029L947.315 389.986L947.319 389.993L952.54 387.037ZM956.494 405.235C956.929 398.528 955.622 392.443 952.536 387.03L947.323 390.001C949.774 394.3 950.872 399.199 950.506 404.847L956.494 405.235ZM956.494 405.234L956.494 405.223L950.505 404.859L950.505 404.87L956.494 405.234ZM956.495 405.212L956.496 405.201L950.503 404.903L950.502 404.914L956.495 405.212ZM954.178 427.274C955.544 416.06 956.321 408.686 956.495 405.213L950.502 404.913C950.341 408.132 949.595 415.283 948.222 426.548L954.178 427.274ZM950.242 458.054C951.512 448.646 952.823 438.386 954.178 427.274L948.222 426.548C946.87 437.639 945.562 447.873 944.296 457.252L950.242 458.054ZM916.965 463.54L916.573 466.755L922.529 467.48L922.921 464.265L916.965 463.54Z" fill="#FFCC33" mask="url(#path-4-inside-1_18061_25339)"/>
</g>
<g filter="url(#filter3_d_18061_25339)">
<path d="M844.731 377.533C849.808 374.745 855.288 372.875 861.178 371.924C866.655 371.067 871.392 371.102 875.42 371.976L873.801 392.114C871.266 392.009 868.402 392.369 865.231 393.151C861.38 394.099 857.504 395.544 853.604 397.477L853.594 397.482L853.584 397.487C849.688 399.492 846.258 402.36 843.292 406.062C840.274 409.827 838.555 414 838.185 418.557L838.184 418.574L834.227 456.829L808.239 454.74L813.258 368.114L843.107 370.513L842.214 378.915L844.731 377.533Z" fill="#8CB81D"/>
<path d="M844.731 377.533C849.808 374.745 855.288 372.875 861.178 371.924C866.655 371.067 871.392 371.102 875.42 371.976L873.801 392.114C871.266 392.009 868.402 392.369 865.231 393.151C861.38 394.099 857.504 395.544 853.604 397.477L853.594 397.482L853.584 397.487C849.688 399.492 846.258 402.36 843.292 406.062C840.274 409.827 838.555 414 838.185 418.557L838.184 418.574L834.227 456.829L808.239 454.74L813.258 368.114L843.107 370.513L842.214 378.915L844.731 377.533Z" fill="url(#paint2_linear_18061_25339)" fill-opacity="0.2"/>
<path d="M852.928 396.138L852.918 396.143L852.909 396.148L852.898 396.153L852.897 396.154C848.797 398.264 845.207 401.274 842.121 405.124C838.93 409.106 837.086 413.559 836.69 418.435L836.69 418.436L832.886 455.217L809.822 453.362L814.667 369.732L841.452 371.885L840.722 378.757L840.419 381.612L842.936 380.23L845.453 378.848C850.375 376.145 855.689 374.33 861.414 373.406C866.169 372.661 870.289 372.618 873.817 373.197L872.418 390.602C870.091 390.651 867.567 391.03 864.872 391.694C860.904 392.671 856.926 394.157 852.938 396.133C852.938 396.133 852.938 396.133 852.938 396.133L852.928 396.138Z" stroke="#8CB81D" stroke-width="3"/>
</g>
<g filter="url(#filter4_d_18061_25339)">
<path d="M798.211 365.481L767.303 364.442L756.782 419.173L753.819 419.063L747.412 363.666L716.516 362.297L734.659 454.556L773.118 456.055L798.211 365.481Z" fill="#DC231E"/>
<path d="M798.211 365.481L767.303 364.442L756.782 419.173L753.819 419.063L747.412 363.666L716.516 362.297L734.659 454.556L773.118 456.055L798.211 365.481Z" fill="url(#paint3_linear_18061_25339)" fill-opacity="0.2"/>
<path d="M768.534 365.984L796.257 366.916L771.989 454.51L735.902 453.103L718.356 363.88L746.068 365.108L752.329 419.235L752.476 420.513L753.763 420.561L756.726 420.672L758.012 420.72L758.255 419.456L768.534 365.984Z" stroke="#DC231E" stroke-width="3"/>
</g>
<g filter="url(#filter5_d_18061_25339)">
<path fill-rule="evenodd" clip-rule="evenodd" d="M701.406 439.075L701.326 451.824L675.121 451.996L675.1 448.758L672.966 449.782C668.807 451.78 664.351 452.797 659.58 452.828C650.857 452.885 643.435 449.869 637.231 443.746C631.026 437.623 627.913 430.242 627.855 421.518C627.818 415.817 629.176 410.532 631.931 405.635C634.685 400.742 638.48 396.896 643.337 394.079C648.197 391.259 653.464 389.831 659.165 389.794C664.037 389.762 668.679 390.831 673.109 393.01L675.287 394.081L675.271 391.654C675.235 386.203 673.435 381.936 669.656 379.175C666.058 376.546 661.875 375.393 657.185 375.68C652.82 375.835 648.635 376.488 644.632 377.642C642.041 378.389 639.841 379.235 638.087 380.204L637.531 364.274C640.763 361.38 644.866 359.175 649.884 357.69L649.899 357.685L649.913 357.681C655.176 356.005 660.623 355.441 666.266 355.991C671.956 356.546 677.346 357.93 682.443 360.143L682.462 360.151L682.482 360.159C687.577 362.204 691.818 365.522 695.218 370.148L695.223 370.155L695.229 370.162C698.594 374.626 700.487 379.919 700.877 386.098L700.878 386.109L700.879 386.12C701.139 389.46 701.31 396.76 701.384 408.083C701.458 419.265 701.465 429.596 701.406 439.075ZM674.971 430.223L675.34 429.796L675.336 429.233C675.298 423.527 675.324 418.25 675.414 413.399L675.424 412.831L675.056 412.399C672.202 409.046 668.551 407.346 664.206 407.374C660.293 407.4 656.937 408.789 654.234 411.528C651.542 414.256 650.186 417.564 650.211 421.371C650.236 425.179 651.635 428.468 654.363 431.161C657.102 433.864 660.476 435.208 664.389 435.183C668.606 435.155 672.163 433.475 674.971 430.223Z" fill="#279AEA"/>
<path fill-rule="evenodd" clip-rule="evenodd" d="M701.406 439.075L701.326 451.824L675.121 451.996L675.1 448.758L672.966 449.782C668.807 451.78 664.351 452.797 659.58 452.828C650.857 452.885 643.435 449.869 637.231 443.746C631.026 437.623 627.913 430.242 627.855 421.518C627.818 415.817 629.176 410.532 631.931 405.635C634.685 400.742 638.48 396.896 643.337 394.079C648.197 391.259 653.464 389.831 659.165 389.794C664.037 389.762 668.679 390.831 673.109 393.01L675.287 394.081L675.271 391.654C675.235 386.203 673.435 381.936 669.656 379.175C666.058 376.546 661.875 375.393 657.185 375.68C652.82 375.835 648.635 376.488 644.632 377.642C642.041 378.389 639.841 379.235 638.087 380.204L637.531 364.274C640.763 361.38 644.866 359.175 649.884 357.69L649.899 357.685L649.913 357.681C655.176 356.005 660.623 355.441 666.266 355.991C671.956 356.546 677.346 357.93 682.443 360.143L682.462 360.151L682.482 360.159C687.577 362.204 691.818 365.522 695.218 370.148L695.223 370.155L695.229 370.162C698.594 374.626 700.487 379.919 700.877 386.098L700.878 386.109L700.879 386.12C701.139 389.46 701.31 396.76 701.384 408.083C701.458 419.265 701.465 429.596 701.406 439.075ZM674.971 430.223L675.34 429.796L675.336 429.233C675.298 423.527 675.324 418.25 675.414 413.399L675.424 412.831L675.056 412.399C672.202 409.046 668.551 407.346 664.206 407.374C660.293 407.4 656.937 408.789 654.234 411.528C651.542 414.256 650.186 417.564 650.211 421.371C650.236 425.179 651.635 428.468 654.363 431.161C657.102 433.864 660.476 435.208 664.389 435.183C668.606 435.155 672.163 433.475 674.971 430.223Z" fill="url(#paint4_linear_18061_25339)" fill-opacity="0.2"/>
<path d="M676.611 450.486L676.599 448.748L676.584 446.381L674.45 447.405L672.316 448.43C668.363 450.329 664.127 451.298 659.57 451.328C651.244 451.383 644.205 448.522 638.284 442.678C632.363 436.835 629.41 429.834 629.355 421.508C629.319 416.065 630.613 411.037 633.238 406.371C635.861 401.711 639.465 398.059 644.09 395.376C648.72 392.689 653.731 391.33 659.175 391.294C663.811 391.263 668.224 392.279 672.447 394.356L674.625 395.427L676.803 396.498L676.787 394.071L676.771 391.644C676.733 385.851 674.8 381.075 670.541 377.964C666.644 375.117 662.116 373.879 657.113 374.182C652.639 374.342 648.337 375.012 644.217 376.201C642.495 376.697 640.917 377.243 639.505 377.85L639.055 364.936C642.015 362.434 645.74 360.481 650.31 359.128L650.31 359.128L650.325 359.123L650.339 359.119L650.353 359.115L650.368 359.11L650.368 359.11C655.432 357.498 660.675 356.953 666.121 357.484C671.659 358.024 676.896 359.37 681.846 361.519L681.865 361.527L681.884 361.535L681.904 361.543L681.923 361.551C681.923 361.551 681.923 361.551 681.923 361.551C686.749 363.488 690.768 366.627 694.009 371.036L694.01 371.037L694.015 371.044L694.019 371.05L694.024 371.056L694.029 371.063L694.031 371.065C697.203 375.273 699.006 380.279 699.38 386.192L699.38 386.193L699.381 386.204L699.382 386.214L699.382 386.224L699.383 386.235L699.383 386.236C699.639 389.513 699.81 396.757 699.884 408.092C699.958 419.27 699.965 429.594 699.906 439.066L699.836 450.333L676.611 450.486ZM676.843 430.35L676.84 429.786L676.836 429.223L675.336 429.233L676.836 429.223C676.798 423.528 676.824 418.263 676.913 413.426L676.913 413.426L676.924 412.859L676.934 412.291L676.566 411.859L676.198 411.426L675.056 412.399L676.198 411.426C673.064 407.744 668.995 405.843 664.196 405.874C659.896 405.903 656.157 407.444 653.166 410.474C650.198 413.482 648.683 417.171 648.711 421.381C648.739 425.591 650.301 429.26 653.31 432.229C656.34 435.219 660.099 436.711 664.399 436.683C669.062 436.652 673.025 434.772 676.107 431.203L674.971 430.223L676.107 431.203L676.475 430.776L676.843 430.35Z" stroke="#279AEA" stroke-width="3"/>
</g>
<g filter="url(#filter6_d_18061_25339)">
<path d="M610.576 329.295L612.751 452.907L586.702 453.966L579.011 330.579L610.576 329.295Z" fill="#FFCC33"/>
<path d="M610.576 329.295L612.751 452.907L586.702 453.966L579.011 330.579L610.576 329.295Z" fill="url(#paint5_linear_18061_25339)" fill-opacity="0.2"/>
<path d="M588.108 452.408L580.603 332.015L609.104 330.856L611.226 451.468L588.108 452.408Z" stroke="#FFCC33" stroke-width="3"/>
</g>
<g filter="url(#filter7_d_18061_25339)">
<path fill-rule="evenodd" clip-rule="evenodd" d="M567.69 442.108L568.484 454.832L542.351 456.798L542.108 453.569L540.05 454.737C536.038 457.014 531.662 458.334 526.904 458.692C518.205 459.346 510.594 456.846 503.985 451.161C497.376 445.477 493.765 438.326 493.11 429.628C492.682 423.942 493.676 418.576 496.089 413.503C498.502 408.432 502.025 404.336 506.677 401.192C511.332 398.047 516.489 396.262 522.175 395.834C527.033 395.469 531.737 396.218 536.306 398.088L538.552 399.007L538.37 396.587C537.961 391.152 535.873 387.018 531.914 384.522C528.144 382.146 523.892 381.281 519.233 381.889C514.889 382.343 510.758 383.28 506.844 384.706C504.31 385.629 502.173 386.623 500.489 387.71L498.844 371.855C501.871 368.747 505.813 366.266 510.718 364.441L510.732 364.435L510.746 364.43C515.882 362.398 521.277 361.462 526.945 361.624C532.66 361.788 538.132 362.801 543.368 364.659L543.388 364.666L543.408 364.672C548.631 366.364 553.089 369.384 556.798 373.766L556.804 373.773L556.81 373.779C560.472 378.002 562.723 383.154 563.536 389.291L563.537 389.302L563.539 389.313C564.028 392.627 564.697 399.899 565.547 411.189C566.386 422.341 567.1 432.647 567.69 442.108ZM540.712 435.086L541.05 434.635L541.008 434.073C540.58 428.384 540.244 423.117 540.001 418.271L539.973 417.704L539.576 417.298C536.499 414.148 532.74 412.702 528.407 413.028C524.505 413.322 521.253 414.937 518.743 417.855C516.244 420.761 515.118 424.154 515.403 427.95C515.689 431.747 517.31 434.933 520.216 437.433C523.134 439.942 526.591 441.052 530.494 440.759C534.698 440.442 538.133 438.523 540.712 435.086Z" fill="#DC231E"/>
<path fill-rule="evenodd" clip-rule="evenodd" d="M567.69 442.108L568.484 454.832L542.351 456.798L542.108 453.569L540.05 454.737C536.038 457.014 531.662 458.334 526.904 458.692C518.205 459.346 510.594 456.846 503.985 451.161C497.376 445.477 493.765 438.326 493.11 429.628C492.682 423.942 493.676 418.576 496.089 413.503C498.502 408.432 502.025 404.336 506.677 401.192C511.332 398.047 516.489 396.262 522.175 395.834C527.033 395.469 531.737 396.218 536.306 398.088L538.552 399.007L538.37 396.587C537.961 391.152 535.873 387.018 531.914 384.522C528.144 382.146 523.892 381.281 519.233 381.889C514.889 382.343 510.758 383.28 506.844 384.706C504.31 385.629 502.173 386.623 500.489 387.71L498.844 371.855C501.871 368.747 505.813 366.266 510.718 364.441L510.732 364.435L510.746 364.43C515.882 362.398 521.277 361.462 526.945 361.624C532.66 361.788 538.132 362.801 543.368 364.659L543.388 364.666L543.408 364.672C548.631 366.364 553.089 369.384 556.798 373.766L556.804 373.773L556.81 373.779C560.472 378.002 562.723 383.154 563.536 389.291L563.537 389.302L563.539 389.313C564.028 392.627 564.697 399.899 565.547 411.189C566.386 422.341 567.1 432.647 567.69 442.108ZM540.712 435.086L541.05 434.635L541.008 434.073C540.58 428.384 540.244 423.117 540.001 418.271L539.973 417.704L539.576 417.298C536.499 414.148 532.74 412.702 528.407 413.028C524.505 413.322 521.253 414.937 518.743 417.855C516.244 420.761 515.118 424.154 515.403 427.95C515.689 431.747 517.31 434.933 520.216 437.433C523.134 439.942 526.591 441.052 530.494 440.759C534.698 440.442 538.133 438.523 540.712 435.086Z" fill="url(#paint6_linear_18061_25339)" fill-opacity="0.2"/>
<path d="M542.25 435.535L542.588 435.085L542.546 434.523L542.503 433.961C542.076 428.282 541.742 423.027 541.499 418.196L540.001 418.271L541.499 418.196L541.471 417.629L541.442 417.062L541.046 416.656L540.649 416.25L539.576 417.298L540.649 416.25C537.269 412.791 533.08 411.172 528.295 411.532C524.007 411.855 520.382 413.648 517.606 416.877C514.85 420.081 513.592 423.865 513.908 428.063C514.223 432.261 516.034 435.814 519.238 438.57C522.466 441.346 526.319 442.577 530.606 442.255C535.256 441.905 539.082 439.757 541.911 435.986L542.25 435.535ZM543.735 455.19L543.604 453.456L543.427 451.096L541.368 452.264L539.309 453.433C535.496 455.597 531.335 456.854 526.791 457.196C518.489 457.821 511.271 455.449 504.963 450.024C498.656 444.6 495.231 437.818 494.606 429.515C494.198 424.086 495.144 418.982 497.444 414.147C499.741 409.319 503.086 405.429 507.517 402.435C511.953 399.438 516.858 397.738 522.287 397.33C526.91 396.982 531.382 397.693 535.738 399.476L537.984 400.395L540.23 401.315L540.048 398.895L539.866 396.475C539.431 390.698 537.176 386.066 532.714 383.253C528.631 380.68 524.03 379.755 519.058 380.399C514.606 380.866 510.36 381.829 506.331 383.296C504.647 383.909 503.11 384.562 501.743 385.264L500.41 372.412C503.191 369.712 506.775 367.509 511.241 365.846L511.255 365.841L511.269 365.836L511.284 365.83L511.298 365.824C511.298 365.824 511.298 365.824 511.298 365.824C516.24 363.869 521.432 362.967 526.902 363.124C532.464 363.283 537.782 364.268 542.867 366.072C542.867 366.072 542.867 366.072 542.867 366.072L542.886 366.079L542.906 366.086L542.926 366.093L542.946 366.099C542.946 366.099 542.946 366.099 542.946 366.099C547.893 367.702 552.117 370.557 555.653 374.735L555.654 374.736L555.659 374.742L555.665 374.749L555.671 374.755L555.676 374.762L556.704 373.871L555.676 374.762C559.129 378.743 561.271 383.614 562.049 389.488L562.05 389.498L562.052 389.509L562.053 389.521L562.055 389.531C562.534 392.783 563.201 399.998 564.051 411.302C564.89 422.448 565.604 432.748 566.193 442.201L566.894 453.447L543.735 455.19Z" stroke="#DC231E" stroke-width="3"/>
</g>
<g filter="url(#filter8_d_18061_25339)">
<path fill-rule="evenodd" clip-rule="evenodd" d="M420.299 469.278L397.339 472.179L379.636 352.858L407.859 349.292L408.287 354.758L412.422 352.333C417.665 349.256 423.27 347.345 429.259 346.588C441.376 345.057 452.199 348.026 461.902 355.552C471.598 363.073 477.179 372.875 478.726 385.12C480.257 397.233 477.29 408.054 469.769 417.754C462.232 427.336 452.478 432.851 440.352 434.383C433.67 435.227 427.169 434.614 420.817 432.544L416.439 431.117L420.299 469.278ZM411.843 378.156L411.067 379.119L413.958 406.787L414.896 407.568C419.387 411.306 424.675 412.809 430.546 412.067C436.15 411.359 440.8 408.746 444.355 404.325L444.371 404.305L444.387 404.284C447.918 399.732 449.376 394.556 448.664 388.919C447.939 383.182 445.247 378.463 440.677 374.919C436.125 371.388 430.949 369.93 425.312 370.642C419.838 371.334 415.298 373.864 411.843 378.156Z" fill="#279AEA"/>
<path fill-rule="evenodd" clip-rule="evenodd" d="M420.299 469.278L397.339 472.179L379.636 352.858L407.859 349.292L408.287 354.758L412.422 352.333C417.665 349.256 423.27 347.345 429.259 346.588C441.376 345.057 452.199 348.026 461.902 355.552C471.598 363.073 477.179 372.875 478.726 385.12C480.257 397.233 477.29 408.054 469.769 417.754C462.232 427.336 452.478 432.851 440.352 434.383C433.67 435.227 427.169 434.614 420.817 432.544L416.439 431.117L420.299 469.278ZM411.843 378.156L411.067 379.119L413.958 406.787L414.896 407.568C419.387 411.306 424.675 412.809 430.546 412.067C436.15 411.359 440.8 408.746 444.355 404.325L444.371 404.305L444.387 404.284C447.918 399.732 449.376 394.556 448.664 388.919C447.939 383.182 445.247 378.463 440.677 374.919C436.125 371.388 430.949 369.93 425.312 370.642C419.838 371.334 415.298 373.864 411.843 378.156Z" fill="url(#paint7_linear_18061_25339)" fill-opacity="0.2"/>
<path d="M409.899 378.178L409.511 378.66L409.575 379.275L412.466 406.943L412.53 407.55L412.998 407.94L413.936 408.721C418.756 412.732 424.462 414.348 430.734 413.555C436.727 412.798 441.727 409.987 445.524 405.266C445.524 405.266 445.524 405.266 445.524 405.265L445.54 405.245L445.548 405.235L445.557 405.224L445.573 405.203C445.573 405.203 445.573 405.203 445.573 405.203C449.34 400.346 450.916 394.774 450.152 388.731C449.377 382.599 446.48 377.522 441.597 373.734C436.739 369.966 431.167 368.391 425.124 369.154C419.266 369.894 414.374 372.62 410.674 377.215L409.899 378.178ZM398.608 470.507L381.344 354.154L406.486 350.978L406.791 354.875L406.978 357.265L409.046 356.052L413.181 353.626C418.25 350.652 423.661 348.808 429.448 348.077C441.167 346.596 451.593 349.454 460.983 356.738C470.363 364.013 475.74 373.455 477.238 385.308C478.718 397.023 475.863 407.445 468.586 416.832C461.294 426.1 451.898 431.412 440.164 432.895C433.7 433.712 427.422 433.119 421.282 431.118L416.904 429.691L414.715 428.977L414.946 431.268L418.659 467.973L398.608 470.507Z" stroke="#279AEA" stroke-width="3"/>
</g>
<g filter="url(#filter9_d_18061_25339)">
<path fill-rule="evenodd" clip-rule="evenodd" d="M1153.05 328.206L1098.34 294.095L1244.64 86.9934L1258.7 88.8573L1346 326.918L1284.29 345.601L1273.43 298.368L1175.84 285.435L1153.05 328.206ZM1203.13 242.327L1230.73 245.516L1230.84 245.53L1258.31 249.64L1238.89 184.363L1203.13 242.327Z" fill="#8CB81D"/>
<path fill-rule="evenodd" clip-rule="evenodd" d="M1153.05 328.206L1098.34 294.095L1244.64 86.9934L1258.7 88.8573L1346 326.918L1284.29 345.601L1273.43 298.368L1175.84 285.435L1153.05 328.206ZM1203.13 242.327L1230.73 245.516L1230.84 245.53L1258.31 249.64L1238.89 184.363L1203.13 242.327Z" fill="url(#paint8_linear_18061_25339)" fill-opacity="0.2"/>
<path d="M1200.58 240.752L1198.1 244.766L1202.79 245.307L1230.36 248.493L1230.42 248.501L1257.87 252.607L1262.53 253.305L1261.19 248.785L1241.76 183.508L1239.85 177.086L1236.33 182.788L1200.58 240.752ZM1256.51 91.593L1342.09 324.968L1286.5 341.799L1276.35 297.696L1275.89 295.668L1273.82 295.394L1176.24 282.461L1174.17 282.188L1173.19 284.024L1151.91 323.962L1102.62 293.231L1246.04 90.2057L1256.51 91.593Z" stroke="#8CB81D" stroke-width="6"/>
</g>
<g filter="url(#filter10_d_18061_25339)">
<path d="M879.686 160.847L841.236 311.232L779.662 260.446L844.472 52.7637L909.585 56.5663L938.296 142.341L976.392 60.4679L1041.49 64.27L1081.69 278.085L1014.62 321.358L993.934 167.477L930.343 278.031L879.686 160.847Z" fill="#FFCC33"/>
<path d="M879.686 160.847L841.236 311.232L779.662 260.446L844.472 52.7637L909.585 56.5663L938.296 142.341L976.392 60.4679L1041.49 64.27L1081.69 278.085L1014.62 321.358L993.934 167.477L930.343 278.031L879.686 160.847Z" fill="url(#paint9_linear_18061_25339)" fill-opacity="0.2"/>
<path d="M882.439 159.656L878.955 151.595L876.779 160.104L839.499 305.912L783.127 259.415L846.638 55.8952L907.385 59.4429L935.451 143.293L937.841 150.431L941.016 143.606L978.252 63.5816L1038.98 67.1282L1078.37 276.657L1016.97 316.276L996.907 167.077L995.732 158.334L991.333 165.981L930.724 271.352L882.439 159.656Z" stroke="#FFCC33" stroke-width="6"/>
</g>
<g filter="url(#filter11_d_18061_25339)">
<path fill-rule="evenodd" clip-rule="evenodd" d="M740.851 283.846L679.761 303.376L625.014 223.102L623.723 306.372L569.977 306.875L562.045 50.8354L627.14 50.2262L626.767 59.9858L631.585 57.8675C643.494 52.6312 655.898 49.9571 668.823 49.8361C694.944 49.5917 717.283 58.622 736.019 77.011C754.756 95.4 764.202 117.566 764.447 143.687C764.639 164.193 758.846 182.617 747.052 199.064L747.043 199.077L747.034 199.09C735.465 215.562 720.353 227.145 701.63 233.907L697.004 235.578L740.851 283.846ZM627.407 115.723L626.439 116.675L625.763 171.993L626.686 172.964C634.467 181.147 644.218 185.202 655.704 185.094C666.658 184.992 676.146 181.034 684 173.307L684.021 173.286L684.041 173.266C691.885 165.274 695.819 155.7 695.716 144.709C695.611 133.49 691.514 123.858 683.505 115.997C675.513 108.154 665.94 104.219 654.948 104.322C644.257 104.422 635.019 108.245 627.407 115.723Z" fill="#279AEA"/>
<path fill-rule="evenodd" clip-rule="evenodd" d="M740.851 283.846L679.761 303.376L625.014 223.102L623.723 306.372L569.977 306.875L562.045 50.8354L627.14 50.2262L626.767 59.9858L631.585 57.8675C643.494 52.6312 655.898 49.9571 668.823 49.8361C694.944 49.5917 717.283 58.622 736.019 77.011C754.756 95.4 764.202 117.566 764.447 143.687C764.639 164.193 758.846 182.617 747.052 199.064L747.043 199.077L747.034 199.09C735.465 215.562 720.353 227.145 701.63 233.907L697.004 235.578L740.851 283.846ZM627.407 115.723L626.439 116.675L625.763 171.993L626.686 172.964C634.467 181.147 644.218 185.202 655.704 185.094C666.658 184.992 676.146 181.034 684 173.307L684.021 173.286L684.041 173.266C691.885 165.274 695.819 155.7 695.716 144.709C695.611 133.49 691.514 123.858 683.505 115.997C675.513 108.154 665.94 104.219 654.948 104.322C644.257 104.422 635.019 108.245 627.407 115.723Z" fill="url(#paint10_linear_18061_25339)" fill-opacity="0.2"/>
<path d="M624.336 114.535L623.454 115.401L623.439 116.638L622.763 171.957L622.748 173.177L623.589 174.061L624.512 175.031L626.686 172.964L624.512 175.031C632.882 183.832 643.437 188.209 655.732 188.094C667.471 187.984 677.7 183.713 686.104 175.445L686.123 175.427L686.142 175.408L686.161 175.389L686.181 175.368L686.182 175.367C694.567 166.824 698.826 156.49 698.716 144.681C698.603 132.666 694.183 122.274 685.606 113.856C677.063 105.471 666.729 101.212 654.92 101.322C643.455 101.43 633.472 105.559 625.305 113.583L624.336 114.535ZM565.138 53.8066L624.022 53.2555L623.769 59.8712L623.586 64.6617L627.975 62.7321L632.792 60.6137C644.332 55.54 656.334 52.9531 668.851 52.836C694.173 52.599 715.746 61.3175 733.918 79.1521L736.019 77.011L733.918 79.1521C752.089 96.9866 761.21 118.393 761.447 143.715C761.633 163.593 756.032 181.393 744.614 197.316L744.605 197.329L744.597 197.34L744.588 197.352L744.579 197.365L744.579 197.366C733.36 213.338 718.747 224.535 700.611 231.086L695.985 232.757L691.771 234.279L694.784 237.595L735.493 282.41L680.978 299.837L627.493 221.411L622.162 213.594L622.015 223.055L620.768 303.399L572.884 303.847L565.138 53.8066Z" stroke="#279AEA" stroke-width="6"/>
</g>
<g filter="url(#filter12_d_18061_25339)">
<path fill-rule="evenodd" clip-rule="evenodd" d="M343.489 301.48C323.294 291.579 306.878 277.358 294.198 258.781C281.505 239.958 274.346 219.158 272.71 196.323C271.055 173.227 275.179 151.624 285.069 131.448C294.97 111.249 309.192 94.8297 327.772 82.1486C346.595 69.4556 367.395 62.297 390.23 60.6607C413.326 59.0056 434.929 63.1301 455.105 73.0196C475.307 82.922 491.727 97.1465 504.409 115.73L504.418 115.743L504.426 115.756C517.334 134.294 524.615 155.071 526.269 178.153C527.905 200.977 523.665 222.587 513.539 243.044L513.533 243.055C503.631 263.257 489.406 279.678 470.822 292.36C452.263 305.025 431.468 312.188 408.372 313.843C385.537 315.479 363.929 311.359 343.489 301.48ZM383.777 225.611L383.793 225.625L383.809 225.639C394.947 235.037 407.708 239.284 421.931 238.265C436.382 237.229 448.425 231.22 457.877 220.316C467.583 209.394 471.959 196.598 470.922 182.119C469.884 167.64 463.727 155.599 452.563 146.172C441.667 136.74 429.021 132.487 414.803 133.506C405.179 134.196 396.47 137.243 388.749 142.653C381.041 147.79 375.055 154.565 370.819 162.927L370.8 162.964L370.783 163.001C366.797 171.38 365.141 180.283 365.812 189.651C366.848 204.11 372.863 216.157 383.777 225.611Z" fill="#8CB81D"/>
<path fill-rule="evenodd" clip-rule="evenodd" d="M343.489 301.48C323.294 291.579 306.878 277.358 294.198 258.781C281.505 239.958 274.346 219.158 272.71 196.323C271.055 173.227 275.179 151.624 285.069 131.448C294.97 111.249 309.192 94.8297 327.772 82.1486C346.595 69.4556 367.395 62.297 390.23 60.6607C413.326 59.0056 434.929 63.1301 455.105 73.0196C475.307 82.922 491.727 97.1465 504.409 115.73L504.418 115.743L504.426 115.756C517.334 134.294 524.615 155.071 526.269 178.153C527.905 200.977 523.665 222.587 513.539 243.044L513.533 243.055C503.631 263.257 489.406 279.678 470.822 292.36C452.263 305.025 431.468 312.188 408.372 313.843C385.537 315.479 363.929 311.359 343.489 301.48ZM383.777 225.611L383.793 225.625L383.809 225.639C394.947 235.037 407.708 239.284 421.931 238.265C436.382 237.229 448.425 231.22 457.877 220.316C467.583 209.394 471.959 196.598 470.922 182.119C469.884 167.64 463.727 155.599 452.563 146.172C441.667 136.74 429.021 132.487 414.803 133.506C405.179 134.196 396.47 137.243 388.749 142.653C381.041 147.79 375.055 154.565 370.819 162.927L370.8 162.964L370.783 163.001C366.797 171.38 365.141 180.283 365.812 189.651C366.848 204.11 372.863 216.157 383.777 225.611Z" fill="url(#paint11_linear_18061_25339)" fill-opacity="0.2"/>
<path d="M501.964 117.47L501.956 117.458L501.948 117.446L501.94 117.434L501.931 117.422L501.931 117.421C489.542 99.2663 473.52 85.3873 453.784 75.7134C434.099 66.0642 413.027 62.0347 390.444 63.653C368.131 65.2519 347.838 72.2369 329.456 84.6313C311.308 97.0191 297.434 113.038 287.763 132.768C278.114 152.454 274.084 173.526 275.702 196.109C277.301 218.422 284.286 238.715 296.681 257.097C309.066 275.24 325.079 289.112 344.803 298.783C364.765 308.429 385.845 312.449 408.158 310.85C430.741 309.232 451.023 302.239 469.131 289.882C487.285 277.493 501.163 261.473 510.837 241.739L510.839 241.735M501.964 117.47L513.533 243.055L510.839 241.735M501.964 117.47C514.557 135.555 521.661 155.811 523.277 178.368C524.875 200.66 520.738 221.736 510.85 241.713L510.846 241.72L510.843 241.728L510.839 241.735M501.964 117.47L510.839 241.735M381.829 227.893L381.844 227.907L381.86 227.92L381.874 227.932C393.592 237.819 407.119 242.334 422.145 241.257C437.379 240.166 450.157 233.795 460.131 222.296C470.361 210.778 475.01 197.192 473.914 181.905C472.819 166.618 466.28 153.834 454.513 143.892C443.028 133.956 429.606 129.437 414.589 130.514C404.451 131.24 395.228 134.457 387.056 140.176C378.925 145.602 372.603 152.766 368.143 161.572L368.142 161.573L368.124 161.609L368.107 161.641L368.092 161.674L368.074 161.711L368.074 161.712C363.862 170.567 362.112 179.989 362.82 189.866C363.912 205.113 370.294 217.901 381.812 227.879L381.813 227.879L381.829 227.893Z" stroke="#8CB81D" stroke-width="6"/>
</g>
<g filter="url(#filter13_d_18061_25339)">
<path d="M212.064 164.945L220.513 229.581L150.961 237.147L152.999 256.266L153.244 258.145L161.909 338.473L108.619 345.439L96.3412 265.55L69.9307 92.162L228.893 68.8179L237.344 133.468L141.067 143.765L144.225 175.342L212.064 164.945Z" fill="#DC231E"/>
<path d="M212.064 164.945L220.513 229.581L150.961 237.147L152.999 256.266L153.244 258.145L161.909 338.473L108.619 345.439L96.3412 265.55L69.9307 92.162L228.893 68.8179L237.344 133.468L141.067 143.765L144.225 175.342L212.064 164.945Z" fill="url(#paint12_linear_18061_25339)" fill-opacity="0.2"/>
<path d="M144.68 178.307L209.487 168.375L217.141 226.93L150.637 234.165L147.661 234.488L147.978 237.465L150.016 256.584L150.019 256.62L150.024 256.655L150.265 258.5L158.612 335.879L111.139 342.084L99.307 265.098L99.3064 265.094L73.3506 94.692L226.313 72.2289L233.971 130.812L140.748 140.782L137.785 141.099L138.082 144.063L141.24 175.641L141.555 178.786L144.68 178.307Z" stroke="#DC231E" stroke-width="6"/>
</g>
</g>
<defs>
<filter id="filter0_d_18061_25339" x="0.324812" y="0.475011" width="1420.86" height="529.431" filterUnits="userSpaceOnUse" color-interpolation-filters="sRGB">
<feFlood flood-opacity="0" result="BackgroundImageFix"/>
<feColorMatrix in="SourceAlpha" type="matrix" values="0 0 0 0 0 0 0 0 0 0 0 0 0 0 0 0 0 0 127 0" result="hardAlpha"/>
<feOffset dy="12.7021"/>
<feGaussianBlur stdDeviation="9.52656"/>
<feComposite in2="hardAlpha" operator="out"/>
<feColorMatrix type="matrix" values="0 0 0 0 0 0 0 0 0 0 0 0 0 0 0 0 0 0 0.25 0"/>
<feBlend mode="normal" in2="BackgroundImageFix" result="effect1_dropShadow_18061_25339"/>
<feBlend mode="normal" in="SourceGraphic" in2="effect1_dropShadow_18061_25339" result="shape"/>
</filter>
<filter id="filter1_d_18061_25339" x="962.401" y="382.282" width="80.6846" height="100.02" filterUnits="userSpaceOnUse" color-interpolation-filters="sRGB">
<feFlood flood-opacity="0" result="BackgroundImageFix"/>
<feColorMatrix in="SourceAlpha" type="matrix" values="0 0 0 0 0 0 0 0 0 0 0 0 0 0 0 0 0 0 127 0" result="hardAlpha"/>
<feOffset dx="2" dy="2"/>
<feComposite in2="hardAlpha" operator="out"/>
<feColorMatrix type="matrix" values="0 0 0 0 0.4 0 0 0 0 0.196078 0 0 0 0 0.196078 0 0 0 1 0"/>
<feBlend mode="normal" in2="BackgroundImageFix" result="effect1_dropShadow_18061_25339"/>
<feBlend mode="normal" in="SourceGraphic" in2="effect1_dropShadow_18061_25339" result="shape"/>
</filter>
<filter id="filter2_d_18061_25339" x="876.297" y="369.704" width="79.2783" height="102.584" filterUnits="userSpaceOnUse" color-interpolation-filters="sRGB">
<feFlood flood-opacity="0" result="BackgroundImageFix"/>
<feColorMatrix in="SourceAlpha" type="matrix" values="0 0 0 0 0 0 0 0 0 0 0 0 0 0 0 0 0 0 127 0" result="hardAlpha"/>
<feOffset dx="2" dy="2"/>
<feComposite in2="hardAlpha" operator="out"/>
<feColorMatrix type="matrix" values="0 0 0 0 0.396078 0 0 0 0 0.337255 0 0 0 0 0.156863 0 0 0 1 0"/>
<feBlend mode="normal" in2="BackgroundImageFix" result="effect1_dropShadow_18061_25339"/>
<feBlend mode="normal" in="SourceGraphic" in2="effect1_dropShadow_18061_25339" result="shape"/>
</filter>
<filter id="filter3_d_18061_25339" x="808.239" y="368.114" width="69.1816" height="90.7158" filterUnits="userSpaceOnUse" color-interpolation-filters="sRGB">
<feFlood flood-opacity="0" result="BackgroundImageFix"/>
<feColorMatrix in="SourceAlpha" type="matrix" values="0 0 0 0 0 0 0 0 0 0 0 0 0 0 0 0 0 0 127 0" result="hardAlpha"/>
<feOffset dx="2" dy="2"/>
<feComposite in2="hardAlpha" operator="out"/>
<feColorMatrix type="matrix" values="0 0 0 0 0.258824 0 0 0 0 0.321569 0 0 0 0 0.109804 0 0 0 1 0"/>
<feBlend mode="normal" in2="BackgroundImageFix" result="effect1_dropShadow_18061_25339"/>
<feBlend mode="normal" in="SourceGraphic" in2="effect1_dropShadow_18061_25339" result="shape"/>
</filter>
<filter id="filter4_d_18061_25339" x="716.516" y="362.297" width="83.6953" height="95.7585" filterUnits="userSpaceOnUse" color-interpolation-filters="sRGB">
<feFlood flood-opacity="0" result="BackgroundImageFix"/>
<feColorMatrix in="SourceAlpha" type="matrix" values="0 0 0 0 0 0 0 0 0 0 0 0 0 0 0 0 0 0 127 0" result="hardAlpha"/>
<feOffset dx="2" dy="2"/>
<feComposite in2="hardAlpha" operator="out"/>
<feColorMatrix type="matrix" values="0 0 0 0 0.4 0 0 0 0 0.196078 0 0 0 0 0.196078 0 0 0 1 0"/>
<feBlend mode="normal" in2="BackgroundImageFix" result="effect1_dropShadow_18061_25339"/>
<feBlend mode="normal" in="SourceGraphic" in2="effect1_dropShadow_18061_25339" result="shape"/>
</filter>
<filter id="filter5_d_18061_25339" x="627.854" y="355.787" width="75.5908" height="99.0417" filterUnits="userSpaceOnUse" color-interpolation-filters="sRGB">
<feFlood flood-opacity="0" result="BackgroundImageFix"/>
<feColorMatrix in="SourceAlpha" type="matrix" values="0 0 0 0 0 0 0 0 0 0 0 0 0 0 0 0 0 0 127 0" result="hardAlpha"/>
<feOffset dx="2" dy="2"/>
<feComposite in2="hardAlpha" operator="out"/>
<feColorMatrix type="matrix" values="0 0 0 0 0.12549 0 0 0 0 0.254902 0 0 0 0 0.345098 0 0 0 1 0"/>
<feBlend mode="normal" in2="BackgroundImageFix" result="effect1_dropShadow_18061_25339"/>
<feBlend mode="normal" in="SourceGraphic" in2="effect1_dropShadow_18061_25339" result="shape"/>
</filter>
<filter id="filter6_d_18061_25339" x="579.011" y="329.295" width="35.7402" height="126.671" filterUnits="userSpaceOnUse" color-interpolation-filters="sRGB">
<feFlood flood-opacity="0" result="BackgroundImageFix"/>
<feColorMatrix in="SourceAlpha" type="matrix" values="0 0 0 0 0 0 0 0 0 0 0 0 0 0 0 0 0 0 127 0" result="hardAlpha"/>
<feOffset dx="2" dy="2"/>
<feComposite in2="hardAlpha" operator="out"/>
<feColorMatrix type="matrix" values="0 0 0 0 0.396078 0 0 0 0 0.337255 0 0 0 0 0.156863 0 0 0 1 0"/>
<feBlend mode="normal" in2="BackgroundImageFix" result="effect1_dropShadow_18061_25339"/>
<feBlend mode="normal" in="SourceGraphic" in2="effect1_dropShadow_18061_25339" result="shape"/>
</filter>
<filter id="filter7_d_18061_25339" x="493.014" y="361.606" width="77.4697" height="99.1875" filterUnits="userSpaceOnUse" color-interpolation-filters="sRGB">
<feFlood flood-opacity="0" result="BackgroundImageFix"/>
<feColorMatrix in="SourceAlpha" type="matrix" values="0 0 0 0 0 0 0 0 0 0 0 0 0 0 0 0 0 0 127 0" result="hardAlpha"/>
<feOffset dx="2" dy="2"/>
<feComposite in2="hardAlpha" operator="out"/>
<feColorMatrix type="matrix" values="0 0 0 0 0.4 0 0 0 0 0.196078 0 0 0 0 0.196078 0 0 0 1 0"/>
<feBlend mode="normal" in2="BackgroundImageFix" result="effect1_dropShadow_18061_25339"/>
<feBlend mode="normal" in="SourceGraphic" in2="effect1_dropShadow_18061_25339" result="shape"/>
</filter>
<filter id="filter8_d_18061_25339" x="379.636" y="346.198" width="101.48" height="127.981" filterUnits="userSpaceOnUse" color-interpolation-filters="sRGB">
<feFlood flood-opacity="0" result="BackgroundImageFix"/>
<feColorMatrix in="SourceAlpha" type="matrix" values="0 0 0 0 0 0 0 0 0 0 0 0 0 0 0 0 0 0 127 0" result="hardAlpha"/>
<feOffset dx="2" dy="2"/>
<feComposite in2="hardAlpha" operator="out"/>
<feColorMatrix type="matrix" values="0 0 0 0 0.12549 0 0 0 0 0.254902 0 0 0 0 0.345098 0 0 0 1 0"/>
<feBlend mode="normal" in2="BackgroundImageFix" result="effect1_dropShadow_18061_25339"/>
<feBlend mode="normal" in="SourceGraphic" in2="effect1_dropShadow_18061_25339" result="shape"/>
</filter>
<filter id="filter9_d_18061_25339" x="1098.34" y="86.9934" width="251.664" height="262.607" filterUnits="userSpaceOnUse" color-interpolation-filters="sRGB">
<feFlood flood-opacity="0" result="BackgroundImageFix"/>
<feColorMatrix in="SourceAlpha" type="matrix" values="0 0 0 0 0 0 0 0 0 0 0 0 0 0 0 0 0 0 127 0" result="hardAlpha"/>
<feOffset dx="4" dy="4"/>
<feComposite in2="hardAlpha" operator="out"/>
<feColorMatrix type="matrix" values="0 0 0 0 0.305806 0 0 0 0 0.375 0 0 0 0 0.13125 0 0 0 1 0"/>
<feBlend mode="normal" in2="BackgroundImageFix" result="effect1_dropShadow_18061_25339"/>
<feBlend mode="normal" in="SourceGraphic" in2="effect1_dropShadow_18061_25339" result="shape"/>
</filter>
<filter id="filter10_d_18061_25339" x="779.662" y="52.7637" width="306.027" height="272.594" filterUnits="userSpaceOnUse" color-interpolation-filters="sRGB">
<feFlood flood-opacity="0" result="BackgroundImageFix"/>
<feColorMatrix in="SourceAlpha" type="matrix" values="0 0 0 0 0 0 0 0 0 0 0 0 0 0 0 0 0 0 127 0" result="hardAlpha"/>
<feOffset dx="4" dy="4"/>
<feComposite in2="hardAlpha" operator="out"/>
<feColorMatrix type="matrix" values="0 0 0 0 0.395833 0 0 0 0 0.336458 0 0 0 0 0.158333 0 0 0 1 0"/>
<feBlend mode="normal" in2="BackgroundImageFix" result="effect1_dropShadow_18061_25339"/>
<feBlend mode="normal" in="SourceGraphic" in2="effect1_dropShadow_18061_25339" result="shape"/>
</filter>
<filter id="filter11_d_18061_25339" x="562.045" y="49.8313" width="206.406" height="261.043" filterUnits="userSpaceOnUse" color-interpolation-filters="sRGB">
<feFlood flood-opacity="0" result="BackgroundImageFix"/>
<feColorMatrix in="SourceAlpha" type="matrix" values="0 0 0 0 0 0 0 0 0 0 0 0 0 0 0 0 0 0 127 0" result="hardAlpha"/>
<feOffset dx="4" dy="4"/>
<feComposite in2="hardAlpha" operator="out"/>
<feColorMatrix type="matrix" values="0 0 0 0 0.123924 0 0 0 0 0.254793 0 0 0 0 0.345833 0 0 0 1 0"/>
<feBlend mode="normal" in2="BackgroundImageFix" result="effect1_dropShadow_18061_25339"/>
<feBlend mode="normal" in="SourceGraphic" in2="effect1_dropShadow_18061_25339" result="shape"/>
</filter>
<filter id="filter12_d_18061_25339" x="272.354" y="60.3052" width="258.256" height="257.886" filterUnits="userSpaceOnUse" color-interpolation-filters="sRGB">
<feFlood flood-opacity="0" result="BackgroundImageFix"/>
<feColorMatrix in="SourceAlpha" type="matrix" values="0 0 0 0 0 0 0 0 0 0 0 0 0 0 0 0 0 0 127 0" result="hardAlpha"/>
<feOffset dx="4" dy="4"/>
<feComposite in2="hardAlpha" operator="out"/>
<feColorMatrix type="matrix" values="0 0 0 0 0.260875 0 0 0 0 0.320833 0 0 0 0 0.109618 0 0 0 1 0"/>
<feBlend mode="normal" in2="BackgroundImageFix" result="effect1_dropShadow_18061_25339"/>
<feBlend mode="normal" in="SourceGraphic" in2="effect1_dropShadow_18061_25339" result="shape"/>
</filter>
<filter id="filter13_d_18061_25339" x="69.9307" y="68.8179" width="171.413" height="280.621" filterUnits="userSpaceOnUse" color-interpolation-filters="sRGB">
<feFlood flood-opacity="0" result="BackgroundImageFix"/>
<feColorMatrix in="SourceAlpha" type="matrix" values="0 0 0 0 0 0 0 0 0 0 0 0 0 0 0 0 0 0 127 0" result="hardAlpha"/>
<feOffset dx="4" dy="4"/>
<feComposite in2="hardAlpha" operator="out"/>
<feColorMatrix type="matrix" values="0 0 0 0 0.4 0 0 0 0 0.195 0 0 0 0 0.195 0 0 0 1 0"/>
<feBlend mode="normal" in2="BackgroundImageFix" result="effect1_dropShadow_18061_25339"/>
<feBlend mode="normal" in="SourceGraphic" in2="effect1_dropShadow_18061_25339" result="shape"/>
</filter>
<linearGradient id="paint0_linear_18061_25339" x1="1001.74" y1="382.282" x2="1001.74" y2="480.302" gradientUnits="userSpaceOnUse">
<stop stop-color="#212121" stop-opacity="0"/>
<stop offset="0.75" stop-color="#212121" stop-opacity="0.6"/>
<stop offset="1" stop-color="white"/>
</linearGradient>
<linearGradient id="paint1_linear_18061_25339" x1="914.936" y1="369.704" x2="914.936" y2="470.288" gradientUnits="userSpaceOnUse">
<stop stop-color="#212121" stop-opacity="0"/>
<stop offset="0.75" stop-color="#212121" stop-opacity="0.6"/>
<stop offset="1" stop-color="white"/>
</linearGradient>
<linearGradient id="paint2_linear_18061_25339" x1="841.83" y1="368.114" x2="841.83" y2="456.829" gradientUnits="userSpaceOnUse">
<stop stop-color="#212121" stop-opacity="0"/>
<stop offset="0.75" stop-color="#212121" stop-opacity="0.6"/>
<stop offset="1" stop-color="white"/>
</linearGradient>
<linearGradient id="paint3_linear_18061_25339" x1="757.363" y1="362.297" x2="757.363" y2="456.055" gradientUnits="userSpaceOnUse">
<stop stop-color="#212121" stop-opacity="0"/>
<stop offset="0.75" stop-color="#212121" stop-opacity="0.6"/>
<stop offset="1" stop-color="white"/>
</linearGradient>
<linearGradient id="paint4_linear_18061_25339" x1="664.65" y1="355.787" x2="664.65" y2="452.829" gradientUnits="userSpaceOnUse">
<stop stop-color="#212121" stop-opacity="0"/>
<stop offset="0.75" stop-color="#212121" stop-opacity="0.6"/>
<stop offset="1" stop-color="white"/>
</linearGradient>
<linearGradient id="paint5_linear_18061_25339" x1="595.881" y1="329.295" x2="595.881" y2="453.966" gradientUnits="userSpaceOnUse">
<stop stop-color="#212121" stop-opacity="0"/>
<stop offset="0.75" stop-color="#212121" stop-opacity="0.6"/>
<stop offset="1" stop-color="white"/>
</linearGradient>
<linearGradient id="paint6_linear_18061_25339" x1="530.749" y1="361.606" x2="530.749" y2="458.794" gradientUnits="userSpaceOnUse">
<stop stop-color="#212121" stop-opacity="0"/>
<stop offset="0.75" stop-color="#212121" stop-opacity="0.6"/>
<stop offset="1" stop-color="white"/>
</linearGradient>
<linearGradient id="paint7_linear_18061_25339" x1="429.376" y1="346.198" x2="429.376" y2="472.179" gradientUnits="userSpaceOnUse">
<stop stop-color="#212121" stop-opacity="0"/>
<stop offset="0.75" stop-color="#212121" stop-opacity="0.6"/>
<stop offset="1" stop-color="white"/>
</linearGradient>
<linearGradient id="paint8_linear_18061_25339" x1="1222.17" y1="86.9934" x2="1222.17" y2="345.601" gradientUnits="userSpaceOnUse">
<stop stop-color="#212121" stop-opacity="0"/>
<stop offset="0.75" stop-color="#212121" stop-opacity="0.6"/>
<stop offset="1" stop-color="white"/>
</linearGradient>
<linearGradient id="paint9_linear_18061_25339" x1="930.676" y1="52.7637" x2="930.676" y2="321.358" gradientUnits="userSpaceOnUse">
<stop stop-color="#212121" stop-opacity="0"/>
<stop offset="0.75" stop-color="#212121" stop-opacity="0.6"/>
<stop offset="1" stop-color="white"/>
</linearGradient>
<linearGradient id="paint10_linear_18061_25339" x1="663.248" y1="49.8313" x2="663.248" y2="306.875" gradientUnits="userSpaceOnUse">
<stop stop-color="#212121" stop-opacity="0"/>
<stop offset="0.75" stop-color="#212121" stop-opacity="0.6"/>
<stop offset="1" stop-color="white"/>
</linearGradient>
<linearGradient id="paint11_linear_18061_25339" x1="399.483" y1="60.3052" x2="399.483" y2="314.191" gradientUnits="userSpaceOnUse">
<stop stop-color="#212121" stop-opacity="0"/>
<stop offset="0.75" stop-color="#212121" stop-opacity="0.6"/>
<stop offset="1" stop-color="white"/>
</linearGradient>
<linearGradient id="paint12_linear_18061_25339" x1="153.637" y1="68.8179" x2="153.637" y2="345.439" gradientUnits="userSpaceOnUse">
<stop stop-color="#212121" stop-opacity="0"/>
<stop offset="0.75" stop-color="#212121" stop-opacity="0.6"/>
<stop offset="1" stop-color="white"/>
</linearGradient>
</defs>
</svg>
