<svg width="50" height="42" viewBox="0 0 50 42" fill="none" xmlns="http://www.w3.org/2000/svg">
<rect x="0.1" y="0.266748" width="49.8" height="8.13333" rx="4.06667" fill="url(#paint0_linear_18025_2557)"/>
<rect x="0.1" y="0.266748" width="49.8" height="8.13333" rx="4.06667" fill="url(#paint1_radial_18025_2557)" fill-opacity="0.2"/>
<rect x="0.1" y="0.266748" width="49.8" height="8.13333" rx="4.06667" stroke="#406F3F" stroke-width="0.2"/>
<rect x="0.1" y="16.9335" width="49.8" height="8.13333" rx="4.06667" fill="url(#paint2_linear_18025_2557)"/>
<rect x="0.1" y="16.9335" width="49.8" height="8.13333" rx="4.06667" fill="url(#paint3_radial_18025_2557)" fill-opacity="0.2"/>
<rect x="0.1" y="16.9335" width="49.8" height="8.13333" rx="4.06667" stroke="#406F3F" stroke-width="0.2"/>
<rect x="0.1" y="33.6" width="49.8" height="8.13333" rx="4.06667" fill="url(#paint4_linear_18025_2557)"/>
<rect x="0.1" y="33.6" width="49.8" height="8.13333" rx="4.06667" fill="url(#paint5_radial_18025_2557)" fill-opacity="0.2"/>
<rect x="0.1" y="33.6" width="49.8" height="8.13333" rx="4.06667" stroke="#406F3F" stroke-width="0.2"/>
<defs>
<linearGradient id="paint0_linear_18025_2557" x1="25" y1="0.166748" x2="25" y2="8.50008" gradientUnits="userSpaceOnUse">
<stop stop-color="#78909C"/>
<stop offset="1" stop-color="#455B64"/>
</linearGradient>
<radialGradient id="paint1_radial_18025_2557" cx="0" cy="0" r="1" gradientUnits="userSpaceOnUse" gradientTransform="translate(25 2.77091) scale(54.125 2.0873)">
<stop stop-color="white"/>
<stop offset="1" stop-color="white" stop-opacity="0"/>
</radialGradient>
<linearGradient id="paint2_linear_18025_2557" x1="25" y1="16.8335" x2="25" y2="25.1668" gradientUnits="userSpaceOnUse">
<stop stop-color="#78909C"/>
<stop offset="1" stop-color="#455B64"/>
</linearGradient>
<radialGradient id="paint3_radial_18025_2557" cx="0" cy="0" r="1" gradientUnits="userSpaceOnUse" gradientTransform="translate(25 19.4377) scale(54.125 2.0873)">
<stop stop-color="white"/>
<stop offset="1" stop-color="white" stop-opacity="0"/>
</radialGradient>
<linearGradient id="paint4_linear_18025_2557" x1="25" y1="33.5" x2="25" y2="41.8333" gradientUnits="userSpaceOnUse">
<stop stop-color="#78909C"/>
<stop offset="1" stop-color="#455B64"/>
</linearGradient>
<radialGradient id="paint5_radial_18025_2557" cx="0" cy="0" r="1" gradientUnits="userSpaceOnUse" gradientTransform="translate(25 36.1042) scale(54.125 2.0873)">
<stop stop-color="white"/>
<stop offset="1" stop-color="white" stop-opacity="0"/>
</radialGradient>
</defs>
</svg>
