<svg width="20" height="20" viewBox="0 0 20 20" fill="none" xmlns="http://www.w3.org/2000/svg">
<path d="M15.0423 9.99992L18.5834 6.45869C19.9756 5.06643 19.9756 2.8091 18.5834 1.41675C17.1911 0.0244943 14.9337 0.0244943 13.5415 1.41675L10.0003 4.95798L6.45918 1.41675C5.06692 0.0244943 2.8095 0.0244943 1.41724 1.41675C0.0249826 2.80901 0.0249826 5.06634 1.41724 6.45869L4.95838 9.99992L1.41724 13.5412C0.0249826 14.9334 0.0249826 17.1907 1.41724 18.5831C2.8095 19.9753 5.06692 19.9753 6.45918 18.5831L10.0003 15.0419L13.5415 18.5831C14.9337 19.9753 17.1911 19.9753 18.5834 18.5831C19.9756 17.1908 19.9756 14.9335 18.5834 13.5412L15.0423 9.99992Z" fill="#FF4A73"/>
<path d="M3.00146 18.5831C3.49464 19.0763 4.09663 19.3952 4.73031 19.5379C3.57604 19.8008 2.31611 19.483 1.4174 18.5831C0.0244014 17.1911 0.0244014 14.9343 1.4174 13.5414L4.95836 10.0003L1.41731 6.45928C0.0243085 5.06628 0.0243085 2.80951 1.41731 1.41753C2.31602 0.517703 3.57595 0.199887 4.73022 0.462782C4.09654 0.605335 3.49464 0.924266 3.00137 1.41753C1.60837 2.80951 1.60837 5.06628 3.00137 6.45928L6.54251 10.0003L3.00146 13.5414C1.60846 14.9343 1.60846 17.1911 3.00146 18.5831Z" fill="#F973A3"/>
<path d="M18.5828 13.5414C19.9758 14.9344 19.9758 17.1912 18.5828 18.5831C17.6841 19.483 16.4242 19.8008 15.2699 19.5379C15.9036 19.3953 16.5055 19.0764 16.9988 18.5831C18.3918 17.1911 18.3918 14.9343 16.9988 13.5414L13.4576 10.0003L16.9987 6.45928C18.3917 5.06628 18.3917 2.80951 16.9987 1.41753C16.5055 0.924358 15.9035 0.605427 15.2698 0.462782C16.4241 0.199887 17.684 0.517703 18.5827 1.41753C19.9758 2.80951 19.9758 5.06628 18.5827 6.45928L15.0418 10.0003L18.5828 13.5414Z" fill="#EA2A6A"/>
<path d="M15.5677 9.99984L18.8459 6.72141C20.3845 5.18298 20.3847 2.69258 18.8459 1.15396C17.3075 -0.384469 14.817 -0.384841 13.2783 1.15396L10 4.43221L6.72169 1.15396C5.1866 -0.381031 2.68905 -0.381031 1.15396 1.15396C-0.384562 2.6924 -0.384748 5.18279 1.15396 6.72141L4.43239 9.99984L1.15406 13.2783C-0.384376 14.8166 -0.384655 17.3071 1.15406 18.8457C2.68915 20.3807 5.1867 20.3807 6.72179 18.8457L10 15.5675L13.2784 18.8457C14.8168 20.3842 17.3072 20.3845 18.846 18.8457C20.3846 17.3072 20.3847 14.8169 18.846 13.2783L15.5677 9.99984ZM18.3203 18.3201C17.0724 19.5681 15.0522 19.5682 13.8041 18.3201L10.2629 14.779C10.1177 14.6337 9.88238 14.6337 9.73723 14.779L6.19609 18.3201C4.95094 19.5653 2.925 19.5651 1.67985 18.3201C0.432002 17.0722 0.431537 15.0521 1.67985 13.8039L5.22099 10.2626C5.36614 10.1175 5.36614 9.8821 5.22099 9.73704L1.67966 6.19572C0.431723 4.94778 0.431538 2.92779 1.67966 1.67948C2.92481 0.434325 4.95084 0.434325 6.19599 1.67948L9.73713 5.22062C9.88238 5.36586 10.1177 5.36586 10.2628 5.22062L13.804 1.67948C15.0519 0.431537 17.0721 0.431351 18.3202 1.67948C19.5682 2.92751 19.5685 4.9475 18.3202 6.19572L14.7791 9.73695C14.6339 9.8821 14.6339 10.1175 14.7791 10.2626L18.3202 13.8038C19.5683 15.0519 19.5684 17.0718 18.3203 18.3201Z" fill="#5F266D"/>
<path d="M13.5573 8.27098L12.8967 8.93161C12.7516 9.07676 12.7516 9.31215 12.8967 9.45721C13.0418 9.60236 13.2772 9.60246 13.4224 9.45721L14.083 8.79658C14.2282 8.65143 14.2282 8.41604 14.083 8.27098C13.9379 8.12573 13.7025 8.12591 13.5573 8.27098Z" fill="#5F266D"/>
<path d="M15.0686 7.81127L17.697 5.18288C17.8422 5.03773 17.8422 4.80234 17.697 4.65728C17.5518 4.51203 17.3165 4.51203 17.1713 4.65728L14.5429 7.28567C14.3978 7.43082 14.3978 7.66621 14.5429 7.81127C14.6882 7.95652 14.9235 7.95652 15.0686 7.81127Z" fill="#5F266D"/>
</svg>
