<svg width="58" height="58" viewBox="0 0 58 58" fill="none" xmlns="http://www.w3.org/2000/svg">
<g filter="url(#filter0_d_18025_2563)">
<path d="M53.9219 29.3991V20.6009H47.3863C46.9171 18.6329 46.1437 16.7835 45.1124 15.1086L49.7324 10.4886L43.5114 4.26758L38.8914 8.88758C37.2156 7.85719 35.3671 7.08289 33.3991 6.61367V0.078125H24.6009V6.61367C22.6329 7.08289 20.7835 7.85633 19.1086 8.88758L14.4886 4.26758L8.26758 10.4886L12.8876 15.1086C11.8572 16.7844 11.0829 18.6329 10.6137 20.6009H4.07812V29.3991H10.6137C11.0829 31.3671 11.8563 33.2165 12.8876 34.8914L8.26758 39.5114L14.4886 45.7324L19.1086 41.1124C20.7844 42.1428 22.6329 42.9171 24.6009 43.3863V49.9219H33.3991V43.3863C35.3671 42.9171 37.2165 42.1437 38.8914 41.1124L43.5114 45.7324L49.7324 39.5114L45.1124 34.8914C46.1428 33.2156 46.9171 31.3671 47.3863 29.3991H53.9219Z" fill="#78909C"/>
<path d="M8.26575 10.4883L14.4861 4.2679L17.0641 6.84585L10.8437 13.0662L8.26575 10.4883Z" fill="#546F7A"/>
<path d="M27.179 45.9644C26.2921 45.753 25.4345 45.4711 24.6009 45.1411V49.9218H27.179V45.9644Z" fill="#78909C"/>
<path d="M6.65625 23.179H13.1918C13.661 21.2111 14.4345 19.3617 15.4657 17.6868L12.8876 15.1086C11.8572 16.7844 11.0829 18.6329 10.6137 20.6009H4.07812V29.3992H6.65625V23.179Z" fill="#546F7A"/>
<path d="M13.1918 31.9773H11.437C11.84 32.9939 12.3204 33.971 12.8867 34.8914L8.26672 39.5114L10.8448 42.0896L15.4648 37.4696C14.4345 35.7938 13.661 33.9453 13.1918 31.9773Z" fill="#546F7A"/>
<path d="M29 38.75C36.5939 38.75 42.75 32.5939 42.75 25C42.75 17.4061 36.5939 11.25 29 11.25C21.4061 11.25 15.25 17.4061 15.25 25C15.25 32.5939 21.4061 38.75 29 38.75Z" fill="#546F7A"/>
<path d="M16.9687 26.7187C16.9687 19.1373 23.1373 12.9687 30.7187 12.9687C34.0729 12.9687 37.1477 14.1796 39.5368 16.182C37.0128 13.1707 33.2281 11.25 29 11.25C21.4186 11.25 15.25 17.4186 15.25 25C15.25 29.2273 17.1707 33.012 20.182 35.5368C18.1788 33.1477 16.9687 30.0729 16.9687 26.7187Z" fill="#455B64"/>
<path d="M29 31.875C32.797 31.875 35.875 28.797 35.875 25C35.875 21.203 32.797 18.125 29 18.125C25.203 18.125 22.125 21.203 22.125 25C22.125 28.797 25.203 31.875 29 31.875Z" fill="#57A0D7"/>
<path d="M23.8438 26.7188C23.8438 22.928 26.928 19.8438 30.7188 19.8438C32.1763 19.8438 33.5263 20.3027 34.6392 21.0795C33.3957 19.2963 31.3332 18.125 29 18.125C25.2093 18.125 22.125 21.2093 22.125 25C22.125 27.3332 23.2963 29.3966 25.0795 30.6392C24.3027 29.5263 23.8438 28.1754 23.8438 26.7188Z" fill="#3D82C4"/>
</g>
<defs>
<filter id="filter0_d_18025_2563" x="0.078125" y="0.078125" width="57.8438" height="57.8438" filterUnits="userSpaceOnUse" color-interpolation-filters="sRGB">
<feFlood flood-opacity="0" result="BackgroundImageFix"/>
<feColorMatrix in="SourceAlpha" type="matrix" values="0 0 0 0 0 0 0 0 0 0 0 0 0 0 0 0 0 0 127 0" result="hardAlpha"/>
<feOffset dy="4"/>
<feGaussianBlur stdDeviation="2"/>
<feComposite in2="hardAlpha" operator="out"/>
<feColorMatrix type="matrix" values="0 0 0 0 0 0 0 0 0 0 0 0 0 0 0 0 0 0 0.25 0"/>
<feBlend mode="normal" in2="BackgroundImageFix" result="effect1_dropShadow_18025_2563"/>
<feBlend mode="normal" in="SourceGraphic" in2="effect1_dropShadow_18025_2563" result="shape"/>
</filter>
</defs>
</svg>
